<svg id="Layer_1" data-name="Layer 1" xmlns="http://www.w3.org/2000/svg" viewBox="0 0 32 32">
  <defs>
    <style>
      .cls-1 {
        fill: none;
        stroke-linecap: round;
        stroke-linejoin: round;
      }

      .cls-1, .cls-2 {
        stroke: #9A554B;
        stroke-width: 2px;
      }

      .cls-2 {
        stroke-miterlimit: 10;
      }
    </style>
  </defs>
  <title>hotel</title>
  <path class="cls-1" d="M21.75,7.11H10.23L9.89,1.72A29,29,0,0,1,16.18,1a26.33,26.33,0,0,1,6.11.72Z"/>
  <path class="cls-1" d="M10.23,7.11a6.1,6.1,0,0,0-.45,2.31,6.22,6.22,0,1,0,12.44,0,6.1,6.1,0,0,0-.45-2.31Z"/>
  <line class="cls-1" x1="10.25" y1="4.05" x2="21.93" y2="4.05"/>
  <path class="cls-1" d="M28.91,29.24h0a6.8,6.8,0,0,0-.3-1.53,13.27,13.27,0,0,0-.86-2.41v-.05a13.05,13.05,0,0,0-8.3-7L16,21.67,12.6,18.25a13,13,0,0,0-8.34,7v.05a13.27,13.27,0,0,0-.86,2.41,6.28,6.28,0,0,0-.3,1.53h0c0,.07,0,.21,0,.28,0,.82.5,1.09,1,1.43l.07.05h23.7l.07-.05c.5-.34,1-.61,1-1.43C28.92,29.45,28.91,29.31,28.91,29.24Z"/>
  <line class="cls-1" x1="16" y1="21.66" x2="16" y2="31"/>
  <circle class="cls-2" cx="18.8" cy="24.2" r="0.47"/>
  <circle class="cls-2" cx="18.8" cy="27.79" r="0.47"/>
  <circle class="cls-2" cx="12.97" cy="24.2" r="0.47"/>
  <circle class="cls-2" cx="12.97" cy="27.79" r="0.47"/>
</svg>
