<svg xmlns="http://www.w3.org/2000/svg" viewBox="0 0 140 32">
  <title>icon-02</title>
  <circle cx="124" cy="21" r="10" style="fill: none;stroke: #9a554b;stroke-miterlimit: 10;stroke-width: 2px"/>
  <polyline points="124 15 124 21 126.81 23.81" style="fill: none;stroke: #9a554b;stroke-linecap: round;stroke-linejoin: round;stroke-width: 2px"/>
  <path d="M69,26.33v3.34A1.34,1.34,0,0,1,67.67,31H65a1.33,1.33,0,0,1-1.33-1.33V28.33" style="fill: none;stroke: #9a554b;stroke-miterlimit: 10;stroke-width: 2px"/>
  <path d="M49,28.33v1.34A1.34,1.34,0,0,1,47.67,31H45a1.33,1.33,0,0,1-1.33-1.33V26.33" style="fill: none;stroke: #9a554b;stroke-miterlimit: 10;stroke-width: 2px"/>
  <path d="M53,10.33v-2A1.35,1.35,0,0,1,54.33,7h4a1.35,1.35,0,0,1,1.34,1.36v2" style="fill: none;stroke: #9a554b;stroke-miterlimit: 10;stroke-width: 2px"/>
  <path d="M63,21.67h2.67A1.33,1.33,0,0,1,67,23c0,.87-.61,1.28-1.39,1.72a4.31,4.31,0,0,1-2.61,1,2,2,0,0,1,0-4Z" style="fill: none;stroke: #9a554b;stroke-miterlimit: 10;stroke-width: 2px"/>
  <path d="M49.67,21.67H47A1.32,1.32,0,0,0,45.67,23c0,.87.61,1.28,1.38,1.72a4.36,4.36,0,0,0,2.62,1,2,2,0,0,0,0-4Z" style="fill: none;stroke: #9a554b;stroke-miterlimit: 10;stroke-width: 2px"/>
  <path d="M44.93,28.33a1.25,1.25,0,0,1-1.26-1.23V21.78s3.26-8.72,3.71-9.59c.54-1,1.91-1.52,2.89-1.86,0,0,1.4-.66,6.06-.66s6.07.66,6.07.66c.84.24,2.36.73,2.84,1.81.54,1.24,3.76,9.64,3.76,9.64V27.1a1.25,1.25,0,0,1-1.27,1.23Z" style="fill: none;stroke: #9a554b;stroke-miterlimit: 10;stroke-width: 2px"/>
  <path d="M45.77,16.33c-.28.72-1.56,3.34,2.56,3.34h16c4.13,0,2.85-2.62,2.57-3.34" style="fill: none;stroke: #9a554b;stroke-miterlimit: 10;stroke-width: 2px"/>
  <path d="M45.31,17H43.07C41.35,17,41,18,41,18.73s.52.94,1.39.94h1.85" style="fill: none;stroke: #9a554b;stroke-miterlimit: 10;stroke-width: 2px"/>
  <path d="M67.35,17H69.6c1.71,0,2.07,1,2.07,1.73s-.53.94-1.39.94H68.43" style="fill: none;stroke: #9a554b;stroke-miterlimit: 10;stroke-width: 2px"/>
  <path d="M6.29,1,1,4.53V22.18a1.89,1.89,0,0,0,1.76,1.76H22.18a1.89,1.89,0,0,0,1.76-1.76V4.53L18.65,1ZM8.06,4.53h8.82l3.53,1.76V9.82H4.53V6.29ZM6.29,16.88a1.77,1.77,0,1,1-1.76,1.77A1.77,1.77,0,0,1,6.29,16.88Zm12.36,0a1.77,1.77,0,1,1-1.77,1.77A1.76,1.76,0,0,1,18.65,16.88Zm-6.18,8.83L2.76,31H22.18Z" style="fill: none;stroke: #9a554b;stroke-linecap: round;stroke-linejoin: round;stroke-width: 2px"/>
</svg>
