<svg viewBox="0 0 290 49" fill="none" xmlns="http://www.w3.org/2000/svg">
<path d="M49.4534 37.3915H24.6405C23.9513 37.5639 23.2621 37.7362 22.5728 38.0808C21.8836 38.4254 21.1943 39.1147 20.8497 39.6316L15.8527 48.2472H55.8289L49.4534 37.3915Z" fill="#F0F0F0"/>
<path d="M35.4962 33.9453C36.1854 34.29 37.047 34.6346 37.9085 34.6346H47.9026L27.9145 0L21.5389 11.0279L33.773 32.0499C34.1177 32.7392 34.8069 33.4284 35.4962 33.9453Z" fill="#F0F0F0"/>
<path d="M25.5021 24.8128C25.5021 23.9513 25.3298 23.0897 24.9851 22.4005L19.9881 13.7849L0 48.2472H12.751L24.8128 27.3975C25.1575 26.7083 25.5021 25.6744 25.5021 24.8128Z" fill="#F0F0F0"/>
<path d="M77.0232 27.7421C81.331 27.7421 84.2603 30.3268 84.2603 34.6346C84.2603 38.4254 82.1925 41.3547 76.6786 41.3547H72.7154V48.2472H68.9246V27.7421H77.0232ZM72.8877 38.2531H76.3339C79.0909 38.2531 80.4694 37.0469 80.4694 34.6346C80.4694 31.3607 77.7124 31.1884 75.9893 31.1884H73.06V38.2531H72.8877Z" fill="#F0F0F0"/>
<path d="M96.1497 27.2252C102.353 27.2252 105.971 32.3945 105.971 37.9085C105.971 42.5609 103.387 48.7641 95.9774 48.7641C89.9465 48.7641 86.1556 43.7671 86.1556 37.9085C86.1556 32.0499 90.1188 27.2252 96.1497 27.2252ZM96.1497 45.3179C99.2513 45.3179 102.008 42.9055 102.008 38.2531C102.008 34.6346 100.113 30.8437 95.9774 30.8437C92.5312 30.8437 90.1188 33.4284 90.1188 38.0808C90.1188 41.1824 91.6696 45.3179 96.1497 45.3179Z" fill="#F0F0F0"/>
<path d="M126.821 42.5609C126.132 44.284 123.892 48.7641 118.033 48.7641C113.209 48.7641 108.384 45.4902 108.384 37.7362C108.384 33.0838 110.969 27.0529 118.206 27.0529C123.547 27.0529 125.615 30.4991 126.649 33.4284L122.858 34.4623C122.686 32.2222 120.79 30.6714 118.378 30.6714C115.104 30.6714 112.692 33.2561 112.692 37.7362C112.692 40.4932 113.898 44.9733 118.378 44.9733C120.963 44.9733 122.686 42.9055 123.375 40.8378L126.821 42.5609Z" fill="#F0F0F0"/>
<path d="M147.499 42.5609C146.809 44.284 144.569 48.7641 138.538 48.7641C133.714 48.7641 128.889 45.4902 128.889 37.7362C128.889 33.0838 131.474 27.0529 138.711 27.0529C144.052 27.0529 146.12 30.4991 146.982 33.4284L143.191 34.4623C143.018 32.2222 141.123 30.6714 138.711 30.6714C135.437 30.6714 133.024 33.2561 133.024 37.7362C133.024 40.4932 134.231 44.9733 138.711 44.9733C141.295 44.9733 143.018 42.9055 143.708 40.8378L147.499 42.5609Z" fill="#F0F0F0"/>
<path d="M167.142 48.2472H163.351V34.8069L154.219 45.8348V48.2472H150.428V27.7421H154.219V41.0101L163.351 29.9822V27.5698H167.142V48.2472Z" fill="#F0F0F0"/>
<path d="M188.681 48.2472H184.89V34.8069L175.758 45.8348V48.2472H171.967V27.7421H175.758V41.0101L184.89 29.9822V27.5698H188.681V48.2472Z" fill="#F0F0F0"/>
<path d="M84.4326 22.7451C84.4326 22.2282 84.7772 5.8586 84.7772 5.8586L80.2971 22.7451H76.8509L72.3708 5.8586C72.3708 5.8586 72.7154 22.0559 72.7154 22.7451H68.9246V2.06775H74.4385L78.4017 17.4035L82.3648 2.06775H87.8788V22.5728H84.4326V22.7451Z" fill="#F0F0F0"/>
<path d="M109.59 22.7451H105.799V9.30483L96.6667 20.3328V22.7451H92.8759V2.06775H96.6667V15.508L105.799 4.48011V2.06775H109.59V22.7451Z" fill="#F0F0F0"/>
<path d="M126.993 22.7451V13.268H118.206V22.5728H114.415V2.06775H118.206V9.82176H126.993V2.06775H130.957V22.5728H126.993V22.7451Z" fill="#F0F0F0"/>
<path d="M151.806 2.06775V22.5728H148.015V5.68629H139.4V22.7451H135.609V2.06775H151.806Z" fill="#F0F0F0"/>
<path d="M164.557 2.06775C168.865 2.06775 171.794 4.65242 171.794 8.9602C171.794 12.7511 169.554 15.6803 164.213 15.6803H160.25V22.7451H156.459V2.06775H164.557ZM160.422 12.5787H163.868C166.625 12.5787 168.004 11.3726 168.004 8.78789C168.004 5.51398 165.247 5.34166 163.523 5.34166H160.594V12.5787H160.422Z" fill="#F0F0F0"/>
<path d="M183.684 1.55081C189.887 1.55081 193.506 6.72015 193.506 12.2341C193.506 16.8865 190.921 23.0897 183.512 23.0897C177.481 23.0897 173.69 18.0927 173.69 12.2341C173.69 6.37553 177.653 1.55081 183.684 1.55081ZM183.684 19.6435C186.785 19.6435 189.542 17.2311 189.542 12.5787C189.542 8.9602 187.647 5.16935 183.512 5.16935C180.065 5.16935 177.653 7.75402 177.653 12.4064C177.653 15.508 179.204 19.6435 183.684 19.6435Z" fill="#F0F0F0"/>
<path d="M212.46 22.7451C212.46 22.2282 212.805 5.8586 212.805 5.8586L208.324 22.7451H204.878L200.398 5.8586C200.398 5.8586 200.743 22.0559 200.743 22.7451H196.952V2.06775H202.466L206.429 17.4035L210.392 2.06775H215.906V22.5728H212.46V22.7451Z" fill="#F0F0F0"/>
<path d="M228.485 5.51398V22.5728H224.694V5.51398H219.18V2.06775H234.343V5.51398H228.485Z" fill="#F0F0F0"/>
<path d="M246.061 1.55081C252.264 1.55081 255.882 6.72015 255.882 12.2341C255.882 16.8865 253.298 23.0897 245.888 23.0897C239.857 23.0897 236.067 18.0927 236.067 12.2341C236.239 6.37553 240.03 1.55081 246.061 1.55081ZM246.061 19.6435C249.162 19.6435 251.919 17.2311 251.919 12.5787C251.919 8.9602 250.024 5.16935 245.888 5.16935C242.442 5.16935 240.03 7.75402 240.03 12.4064C240.202 15.508 241.753 19.6435 246.061 19.6435Z" fill="#F0F0F0"/>
<path d="M267.6 2.06775C271.907 2.06775 274.837 4.65242 274.837 8.9602C274.837 12.7511 272.769 15.6803 267.255 15.6803H263.292V22.7451H259.501V2.06775H267.6ZM263.464 12.5787H266.91C269.667 12.5787 271.046 11.3726 271.046 8.78789C271.046 5.51398 268.289 5.34166 266.566 5.34166H263.636V12.5787H263.464Z" fill="#F0F0F0"/>
<path d="M290 2.06775V5.51398H281.557V22.5728H277.766V2.06775H290Z" fill="#F0F0F0"/>
</svg>
